<svg width="32" height="32" viewBox="0 0 32 32" fill="none" xmlns="http://www.w3.org/2000/svg">
<rect width="32" height="32" rx="16" fill="white"/>
<path d="M17.41 16L21.71 11.71C21.8983 11.5217 22.0041 11.2663 22.0041 11C22.0041 10.7337 21.8983 10.4783 21.71 10.29C21.5217 10.1017 21.2663 9.99591 21 9.99591C20.7337 9.99591 20.4783 10.1017 20.29 10.29L16 14.59L11.71 10.29C11.5217 10.1017 11.2663 9.99591 11 9.99591C10.7337 9.99591 10.4783 10.1017 10.29 10.29C10.1017 10.4783 9.99591 10.7337 9.99591 11C9.99591 11.2663 10.1017 11.5217 10.29 11.71L14.59 16L10.29 20.29C10.1963 20.383 10.1219 20.4936 10.0711 20.6154C10.0203 20.7373 9.9942 20.868 9.9942 21C9.9942 21.132 10.0203 21.2627 10.0711 21.3846C10.1219 21.5064 10.1963 21.617 10.29 21.71C10.383 21.8037 10.4936 21.8781 10.6154 21.9289C10.7373 21.9797 10.868 22.0058 11 22.0058C11.132 22.0058 11.2627 21.9797 11.3846 21.9289C11.5064 21.8781 11.617 21.8037 11.71 21.71L16 17.41L20.29 21.71C20.383 21.8037 20.4936 21.8781 20.6154 21.9289C20.7373 21.9797 20.868 22.0058 21 22.0058C21.132 22.0058 21.2627 21.9797 21.3846 21.9289C21.5064 21.8781 21.617 21.8037 21.71 21.71C21.8037 21.617 21.8781 21.5064 21.9289 21.3846C21.9797 21.2627 22.0058 21.132 22.0058 21C22.0058 20.868 21.9797 20.7373 21.9289 20.6154C21.8781 20.4936 21.8037 20.383 21.71 20.29L17.41 16Z" fill="#262D35" fill-opacity="0.5"/>
</svg>
